<svg width="65" height="76" viewBox="0 0 65 76" fill="none" xmlns="http://www.w3.org/2000/svg">
<path fill-rule="evenodd" clip-rule="evenodd" d="M7.03528 51.2231V45.1056L32.5017 56.3588L57.9643 45.1056V51.2231L32.5017 62.4607L7.03528 51.2231Z" fill="#FFD000"/>
<path fill-rule="evenodd" clip-rule="evenodd" d="M7.03528 0.147095V40.3021L32.5017 51.5397L57.9643 40.3021V0.147095H7.03528ZM17.9193 23.9091L32.5017 30.3435L47.0568 23.9091V27.3982L32.5017 33.8364L17.9193 27.3982V23.9091ZM14.4008 28.1844L32.4861 36.1755L50.5753 28.1844V32.5221L32.5017 40.5132L14.4164 32.5221L14.4008 28.1844ZM53.8866 39.0465L32.4979 48.4887L11.0895 39.0465V33.9263L32.4939 43.3686L53.8826 33.9263L53.8866 39.0465Z" fill="#009688"/>
<path fill-rule="evenodd" clip-rule="evenodd" d="M0.271973 61.7061V53.9731L32.5019 68.203L64.7278 53.9731V61.7061L32.5019 75.9398L0.271973 61.7061Z" fill="#FFD000"/>
<path d="M17.8701 27.4088V23.8999L32.4995 30.2699L47.129 23.8999V27.4088L32.4995 33.8868L17.8701 27.4088Z" fill="#FFD000"/>
<path d="M14.3619 32.5372V28.1646L32.5542 36.1001L50.6386 28.1646V32.5372L32.5542 40.5807L14.3619 32.5372Z" fill="#FFD000"/>
<path d="M11.0953 39.123V33.8866L32.5266 43.3336L53.9039 33.8866V39.123L32.5266 48.462L11.0953 39.123Z" fill="#FFD000"/>
<path d="M22.9322 11.9086L24.6071 17.6669H24.6709L26.3458 11.9086H28.8502L26.1544 20.0756H23.1237L20.4279 11.9086H22.9322Z" fill="#FFD000"/>
<path d="M29.637 20.0756V11.9086H33.1781C33.8002 11.9086 34.3227 11.9924 34.7454 12.1598C35.1708 12.3273 35.4911 12.5639 35.7065 12.8697C35.9245 13.1753 36.0334 13.5356 36.0334 13.9503C36.0334 14.2508 35.967 14.5246 35.834 14.7718C35.7038 15.0191 35.5204 15.2265 35.2837 15.3939C35.0472 15.5588 34.7706 15.673 34.4543 15.7368V15.8166C34.8052 15.8299 35.1242 15.919 35.4113 16.0838C35.6985 16.246 35.9271 16.4707 36.0972 16.7578C36.2674 17.0423 36.3525 17.3772 36.3525 17.7627C36.3525 18.2094 36.2355 18.6068 36.0016 18.9551C35.7702 19.3033 35.4406 19.5772 35.0126 19.7765C34.5845 19.9759 34.0741 20.0756 33.4812 20.0756H29.637ZM31.8543 18.305H32.8911C33.2632 18.305 33.5424 18.2359 33.7284 18.0976C33.9146 17.9567 34.0077 17.7494 34.0077 17.4755C34.0077 17.2841 33.9638 17.1219 33.876 16.989C33.7883 16.8561 33.6633 16.7551 33.5012 16.686C33.3417 16.6169 33.1489 16.5823 32.9229 16.5823H31.8543V18.305ZM31.8543 15.2105H32.7634C32.9575 15.2105 33.129 15.1799 33.2779 15.1187C33.4268 15.0576 33.5424 14.9698 33.6248 14.8556C33.7099 14.7386 33.7524 14.5964 33.7524 14.4288C33.7524 14.1763 33.6621 13.9836 33.4812 13.8507C33.3005 13.7151 33.0718 13.6473 32.7953 13.6473H31.8543V15.2105Z" fill="#FFD000"/>
<path d="M37.1375 20.0756V11.9086H39.3548V15.2105H39.4664L41.9228 11.9086H44.507L41.7474 15.5454L44.5708 20.0756H41.9228L40.0885 17.013L39.3548 17.97V20.0756H37.1375Z" fill="#FFD000"/>
</svg>
